<svg xmlns="http://www.w3.org/2000/svg" viewBox="0 0 32 32">
  <g transform="translate(-12, -3) scale(0.070)">
    <path fill-rule="evenodd" clip-rule="evenodd"
      d="M155,410.4c-1.3-4-1.8-6.2-1.8-8c0-11.1,7.6-19.6,33.4-49.5c5.3-6.2,11.6-15.6,17.4-25    c7.1-11.1,4.9-11.6,7.1-13.4c1.3-1.3,5.8-1.8,14.7-1.8c5.8,0,22.7,1.3,28.5,1.3c5.8,0,13.4,0,24.5-0.9c5.3,0.4,11.1,0.9,13.8,0.9    c3.1,0,6.2-0.4,13.4-1.3c-15.2-4.5-22.3-6.7-22.3-10.7c0-28.1,0-33,47.7-58.8l-9.4-3.6c5.8-17.8,12.5-38.3,46.3-70.4l-12.5,1.3    c-10.7,14.7-16.9,15.6-29.9,34.3c-14.3,20.9-8.5,20.1-18.3,41.9l-16.5,10.2c2.2-35.2,14.3-48.1,56.1-85.6c-7.6-7.1-9.4-9.4-9.4-12    c0-4,4-8.5,11.6-13.4c-14.7,0-16.9,3.6-16.9,14.3c-25,2.2-24.5,3.1-25.8,3.1c-3.6,0-8.5-2.7-8.5-5.3c0-1.3,1.3-3.1,4-5.3    c-5.8-2.2-8.5-4.5-8.5-7.6c0-10.2,8-13.8,19.6-13.8l28.1-3.6l13.8-6.2c4.9-0.4,11.1-0.9,14.3-0.9c3.6,0,6.2,0,12.5,0.9l3.6,2.7    l20.1,1.8l-6.7,9.8l7.6-2.2l7.1-7.1c4.5,6.7,5.3,8.5,6.2,16.9l-19.6-2.7l4.5,6.2l14.3,1.8l3.1,11.6c-8-2.7-10.2-3.1-18.7-3.6    c8.5,4.5,10.2,5.8,20.1,8.9v5.3l-5.8,0.9l-11.6-2.2l15.2,9.4l-2.2,4.5c-6.7-3.1-10.7-3.6-16.9-3.6l13.8,9.4l-3.1,4.9l-10.7-2.2    l9.8,8l-1.3,4c-5.3-2.2-6.7-2.2-13.4-2.7l4.9,5.8l8.9,1.3l-4,7.6l-13.4-2.7l11.1,8l-4,3.6l-10.7-2.7l7.1,9.8l-3.1,3.6l-8.5-3.6    l2.2,7.1l-22.7,3.1l-8,5.3c37.9-1.8,46.3-5.3,56.1-33c12.5-35.6,16-44.6,46.8-44.6l224.1,19.2c2.7,0,4,0.4,4,1.3    c0,5.3-13.4,10.7-18.3,12l-64.6-5.3l-41.9-3.6l-39.2-5.3c-7.1-6.2-7.1-5.8-49.9-9.8c-9.8,0-30.7,9.4-35.7,13.8    c-19.6,17.4,0,45.5-55.7,66c18.3,0,37.4-7.1,45.9-35.2c5.3-17.4,6.2-21.4,11.6-26.3c6.2-5.8,27.2-12.5,30.7-12.5    c4,0,6.7,4,6.7,7.1s-1.3,4.9-4.9,7.1c-2.7,6.7-3.6,7.6-10.2,11.1c0,4.5-0.4,8.5-6.7,11.6c-1.3,8.5-2.2,10.7-8.9,15.2    c0.4,1.3,0.4,3.6,0.4,4.5c0,2.2-1.3,4.5-6.7,8c0,8.5,0,10.7-11.6,12c0,6.7-1.3,6.7-42.8,13.8c8,2.2,11.6,3.1,15.6,3.1    c48.6,0,79.3-14.7,90-14.7c17.8,0,29.9,7.6,46.3,25c43.2,13.8,45.5,11.1,73.5,19.6c40.1,12.5,55.3,26.3,55.3,45    c0,12.9-10.2,22.7-23.2,22.7c-23.2,0-18.3-20.5-23.2-23.6c-20.1-12.9-20.1-12.9-29-23.2c-3.1,4.5-4.5,5.8-6.2,5.8    c-11.6,0-4-20.9-41-30.7c7.6,81.5,8,87.3,41,89.1c13.4,61.5,22.3,49.9,27.6,71.3c3.1,0.9,14.7,5.8,14.7,13.8c0,2.7-2.2,4-6.2,4    c-16.9,0-27.6-18.7-35.2-42.8c-9.8-31.6-18.7-34.3-38.3-39.7c-82-22.7-70-66.4-94-66.4c-0.9,0-2.7,0.4-5.3,1.3l13.4,10.2    c-70.9,12-70.9,12-79.8,12c-20.9,0-33-3.1-59.7-11.6c4.5-9.8,5.8-11.1,18.7-22.3c-22.7,0-20.5,21.4-32.1,21.4    c-9.4,0-51.2-9.4-59.7-10.2c4,24.1,12,16,12,30.3c7.1,0,19.2,2.2,19.2,14.3c0,1.3-1.3,2.2-5.3,2.2c-10.2,0-29-14.3-29.9-15.2    c-7.1-9.4-8.9-33.9-8.9-35.6c-3.6-0.9-4.9-1.3-6.7-1.3c-24.5,0-39.7,52.6-58.8,56.6l-0.9,11.1l-12.9,8l5.3,1.8l8-3.6l2.2,6.2    l-5.8,2.2L155,410.4L155,410.4z"
      fill="none" stroke="#000000" stroke-width="9" stroke-linejoin="round"/>
    <path fill-rule="evenodd" clip-rule="evenodd"
      d="M155,410.4c-1.3-4-1.8-6.2-1.8-8c0-11.1,7.6-19.6,33.4-49.5c5.3-6.2,11.6-15.6,17.4-25    c7.1-11.1,4.9-11.6,7.1-13.4c1.3-1.3,5.8-1.8,14.7-1.8c5.8,0,22.7,1.3,28.5,1.3c5.8,0,13.4,0,24.5-0.9c5.3,0.4,11.1,0.9,13.8,0.9    c3.1,0,6.2-0.4,13.4-1.3c-15.2-4.5-22.3-6.7-22.3-10.7c0-28.1,0-33,47.7-58.8l-9.4-3.6c5.8-17.8,12.5-38.3,46.3-70.4l-12.5,1.3    c-10.7,14.7-16.9,15.6-29.9,34.3c-14.3,20.9-8.5,20.1-18.3,41.9l-16.5,10.2c2.2-35.2,14.3-48.1,56.1-85.6c-7.6-7.1-9.4-9.4-9.4-12    c0-4,4-8.5,11.6-13.4c-14.7,0-16.9,3.6-16.9,14.3c-25,2.2-24.5,3.1-25.8,3.1c-3.6,0-8.5-2.7-8.5-5.3c0-1.3,1.3-3.1,4-5.3    c-5.8-2.2-8.5-4.5-8.5-7.6c0-10.2,8-13.8,19.6-13.8l28.1-3.6l13.8-6.2c4.9-0.4,11.1-0.9,14.3-0.9c3.6,0,6.2,0,12.5,0.9l3.6,2.7    l20.1,1.8l-6.7,9.8l7.6-2.2l7.1-7.1c4.5,6.7,5.3,8.5,6.2,16.9l-19.6-2.7l4.5,6.2l14.3,1.8l3.1,11.6c-8-2.7-10.2-3.1-18.7-3.6    c8.5,4.5,10.2,5.8,20.1,8.9v5.3l-5.8,0.9l-11.6-2.2l15.2,9.4l-2.2,4.5c-6.7-3.1-10.7-3.6-16.9-3.6l13.8,9.4l-3.1,4.9l-10.7-2.2    l9.8,8l-1.3,4c-5.3-2.2-6.7-2.2-13.4-2.7l4.9,5.8l8.9,1.3l-4,7.6l-13.4-2.7l11.1,8l-4,3.6l-10.7-2.7l7.1,9.8l-3.1,3.6l-8.5-3.6    l2.2,7.1l-22.7,3.1l-8,5.3c37.9-1.8,46.3-5.3,56.1-33c12.5-35.6,16-44.6,46.8-44.6l224.1,19.2c2.7,0,4,0.4,4,1.3    c0,5.3-13.4,10.7-18.3,12l-64.6-5.3l-41.9-3.6l-39.2-5.3c-7.1-6.2-7.1-5.8-49.9-9.8c-9.8,0-30.7,9.4-35.7,13.8    c-19.6,17.4,0,45.5-55.7,66c18.3,0,37.4-7.1,45.9-35.2c5.3-17.4,6.2-21.4,11.6-26.3c6.2-5.8,27.2-12.5,30.7-12.5    c4,0,6.7,4,6.7,7.1s-1.3,4.9-4.9,7.1c-2.7,6.7-3.6,7.6-10.2,11.1c0,4.5-0.4,8.5-6.7,11.6c-1.3,8.5-2.2,10.7-8.9,15.2    c0.4,1.3,0.4,3.6,0.4,4.5c0,2.2-1.3,4.5-6.7,8c0,8.5,0,10.7-11.6,12c0,6.7-1.3,6.7-42.8,13.8c8,2.2,11.6,3.1,15.6,3.1    c48.6,0,79.3-14.7,90-14.7c17.8,0,29.9,7.6,46.3,25c43.2,13.8,45.5,11.1,73.5,19.6c40.1,12.5,55.3,26.3,55.3,45    c0,12.9-10.2,22.7-23.2,22.7c-23.2,0-18.3-20.5-23.2-23.6c-20.1-12.9-20.1-12.9-29-23.2c-3.1,4.5-4.5,5.8-6.2,5.8    c-11.6,0-4-20.9-41-30.7c7.6,81.5,8,87.3,41,89.1c13.4,61.5,22.3,49.9,27.6,71.3c3.1,0.9,14.7,5.8,14.7,13.8c0,2.7-2.2,4-6.2,4    c-16.9,0-27.6-18.7-35.2-42.8c-9.8-31.6-18.7-34.3-38.3-39.7c-82-22.7-70-66.4-94-66.4c-0.9,0-2.7,0.4-5.3,1.3l13.4,10.2    c-70.9,12-70.9,12-79.8,12c-20.9,0-33-3.1-59.7-11.6c4.5-9.8,5.8-11.1,18.7-22.3c-22.7,0-20.5,21.4-32.1,21.4    c-9.4,0-51.2-9.4-59.7-10.2c4,24.1,12,16,12,30.3c7.1,0,19.2,2.2,19.2,14.3c0,1.3-1.3,2.2-5.3,2.2c-10.2,0-29-14.3-29.9-15.2    c-7.1-9.4-8.9-33.9-8.9-35.6c-3.6-0.9-4.9-1.3-6.7-1.3c-24.5,0-39.7,52.6-58.8,56.6l-0.9,11.1l-12.9,8l5.3,1.8l8-3.6l2.2,6.2    l-5.8,2.2L155,410.4L155,410.4z"
      fill="#f5a623"/>
  </g>
</svg>
